# xmcd
#
# Track frame offsets: 
#        150
#        15164
#        36082
#        83706
#        110137
#        135223
#        151929
#        174356
#        203656
#        229722
#        278123
#        297045
#        320754
#        336464
#
# Disc length: 4738 seconds
#
# Revision: 1
# Processed by: cddbd v1.5.2PL0 Copyright (c) Steve Scherf et al.
# Submitted via: ExactAudioCopyFreeDBPlugin 1.0
#
DISCID=b512800e
DTITLE=Bruce, Jack - Can You Follow? (4)
DYEAR=2008
DGENRE=Rock
TTITLE0=WEST, BRUCE and LAING Scothc Krotch
TTITLE1=WEST, BRUCE and LAING Like A Plate
TTITLE2=WEST, BRUCE and LAING Powerhouse Sod LIVE
TTITLE3=FRANK ZAPPA Apostrophe (')
TTITLE4=Peaces Of Mind
TTITLE5=Keep It Down
TTITLE6=One
TTITLE7=Timeslip
TTITLE8=Without A Word
TTITLE9=Spirit LIVE
TTITLE10=How's Tricks?
TTITLE11=Something To Live For
TTITLE12=Childsong
TTITLE13=The Best Is Still To Come
EXTD=
EXTT0=
EXTT1=
EXTT2=
EXTT3=
EXTT4=
EXTT5=
EXTT6=
EXTT7=
EXTT8=
EXTT9=
EXTT10=
EXTT11=
EXTT12=
EXTT13=
PLAYORDER=
